<?xml version="1.0" standalone="no"?><!DOCTYPE svg PUBLIC "-//W3C//DTD SVG 1.1//EN" "http://www.w3.org/Graphics/SVG/1.1/DTD/svg11.dtd"><svg xmlns:xlink="http://www.w3.org/1999/xlink" version="1.1" class="highcharts-root" style="font-family:&quot;Lucida Grande&quot;, &quot;Lucida Sans Unicode&quot;, Arial, Helvetica, sans-serif;font-size:12px;" xmlns="http://www.w3.org/2000/svg" width="600" height="400" viewBox="0 0 600 400" aria-hidden="false" aria-label="Interactive chart"><desc aria-hidden="true">Created with Highcharts 8.1.2</desc><defs aria-hidden="true"><clipPath id="highcharts-l3by2ga-293-"><rect x="0" y="0" width="425" height="307" fill="none"></rect></clipPath></defs><rect fill="#ffffff" class="highcharts-background" x="0" y="0" width="600" height="400" rx="0" ry="0" aria-hidden="true"></rect><rect fill="none" class="highcharts-plot-background" x="68" y="53" width="425" height="307" aria-hidden="true"></rect><g class="highcharts-grid highcharts-xaxis-grid" data-z-index="1" aria-hidden="true"><path fill="none" data-z-index="1" class="highcharts-grid-line" d="M 123.5 53 L 123.5 360" opacity="1"></path><path fill="none" data-z-index="1" class="highcharts-grid-line" d="M 227.5 53 L 227.5 360" opacity="1"></path><path fill="none" data-z-index="1" class="highcharts-grid-line" d="M 332.5 53 L 332.5 360" opacity="1"></path><path fill="none" data-z-index="1" class="highcharts-grid-line" d="M 436.5 53 L 436.5 360" opacity="1"></path></g><g class="highcharts-grid highcharts-yaxis-grid" data-z-index="1" aria-hidden="true"><path fill="none" stroke="#e6e6e6" stroke-width="1" data-z-index="1" class="highcharts-grid-line" d="M 68 360.5 L 493 360.5" opacity="1"></path><path fill="none" stroke="#e6e6e6" stroke-width="1" data-z-index="1" class="highcharts-grid-line" d="M 68 283.5 L 493 283.5" opacity="1"></path><path fill="none" stroke="#e6e6e6" stroke-width="1" data-z-index="1" class="highcharts-grid-line" d="M 68 207.5 L 493 207.5" opacity="1"></path><path fill="none" stroke="#e6e6e6" stroke-width="1" data-z-index="1" class="highcharts-grid-line" d="M 68 130.5 L 493 130.5" opacity="1"></path><path fill="none" stroke="#e6e6e6" stroke-width="1" data-z-index="1" class="highcharts-grid-line" d="M 68 52.5 L 493 52.5" opacity="1"></path></g><rect fill="none" class="highcharts-plot-border" data-z-index="1" x="68" y="53" width="425" height="307" aria-hidden="true"></rect><g class="highcharts-axis highcharts-xaxis" data-z-index="2" aria-hidden="true"><path fill="none" class="highcharts-tick" stroke="#ccd6eb" stroke-width="1" d="M 123.5 360 L 123.5 370" opacity="1"></path><path fill="none" class="highcharts-tick" stroke="#ccd6eb" stroke-width="1" d="M 227.5 360 L 227.5 370" opacity="1"></path><path fill="none" class="highcharts-tick" stroke="#ccd6eb" stroke-width="1" d="M 332.5 360 L 332.5 370" opacity="1"></path><path fill="none" class="highcharts-tick" stroke="#ccd6eb" stroke-width="1" d="M 436.5 360 L 436.5 370" opacity="1"></path><path fill="none" class="highcharts-axis-line" stroke="#ccd6eb" stroke-width="1" data-z-index="7" d="M 68 360.5 L 493 360.5"></path></g><g class="highcharts-axis highcharts-yaxis" data-z-index="2" aria-hidden="true"><text x="25.78125" data-z-index="7" text-anchor="middle" transform="translate(0,0) rotate(270 25.78125 206.5)" class="highcharts-axis-title" style="color:#666666;fill:#666666;" y="206.5"><tspan>Data Here</tspan></text><path fill="none" class="highcharts-axis-line" data-z-index="7" d="M 68 53 L 68 360"></path></g><g class="highcharts-series-group" data-z-index="3" aria-hidden="false"><g class="highcharts-series highcharts-series-0 highcharts-line-series highcharts-color-0" data-z-index="0.1" opacity="1" transform="translate(68,53) scale(1 1)" clip-path="url(#highcharts-l3by2ga-293-)" aria-hidden="true"><path fill="none" d="M 4.1666666666667 75.98249999999999 L 56.25 171.92 L 108.33333333333 211.0625 L 160.41666666667 232.5525 L 212.5 246.3675 L 264.58333333333 255.5775 L 316.66666666667 262.485 L 368.75 267.8575 L 420.83333333333 271.695" class="highcharts-graph" data-z-index="1" stroke="#7cb5ec" stroke-width="2" stroke-linejoin="round" stroke-linecap="round"></path></g><g class="highcharts-markers highcharts-series-0 highcharts-line-series highcharts-color-0" data-z-index="0.1" opacity="1" transform="translate(68,53) scale(1 1)" clip-path="none" aria-hidden="false" role="region" tabindex="-1" aria-label="Benford, line 1 of 2 with 9 data points." style="outline: 0px;"><path fill="#7cb5ec" d="M 4 80 A 4 4 0 1 1 4.0039999993333355 79.99999800000016 Z" opacity="1" class="highcharts-point highcharts-color-0" tabindex="-1" role="img" aria-label="1. x, 1, 30.1. Benford." style="outline: 0px;"></path><path fill="#7cb5ec" d="M 56 176 A 4 4 0 1 1 56.00399999933334 175.99999800000018 Z" opacity="1" class="highcharts-point highcharts-color-0" tabindex="-1" role="img" aria-label="2. x, 2, 17.6. Benford." style="outline: 0px;"></path><path fill="#7cb5ec" d="M 108 215 A 4 4 0 1 1 108.00399999933333 214.99999800000018 Z" opacity="1" class="highcharts-point highcharts-color-0" tabindex="-1" role="img" aria-label="3. x, 3, 12.5. Benford." style="outline: 0px;"></path><path fill="#7cb5ec" d="M 160 237 A 4 4 0 1 1 160.00399999933333 236.99999800000018 Z" opacity="1" class="highcharts-point highcharts-color-0" tabindex="-1" role="img" aria-label="4. x, 4, 9.7. Benford." style="outline: 0px;"></path><path fill="#7cb5ec" d="M 212 250 A 4 4 0 1 1 212.00399999933333 249.99999800000018 Z" opacity="1" class="highcharts-point highcharts-color-0" tabindex="-1" role="img" aria-label="5. x, 5, 7.9. Benford." style="outline: 0px;"></path><path fill="#7cb5ec" d="M 264 260 A 4 4 0 1 1 264.00399999933336 259.9999980000002 Z" opacity="1" class="highcharts-point highcharts-color-0" tabindex="-1" role="img" aria-label="6. x, 6, 6.7. Benford." style="outline: 0px;"></path><path fill="#7cb5ec" d="M 316 266 A 4 4 0 1 1 316.00399999933336 265.9999980000002 Z" opacity="1" class="highcharts-point highcharts-color-0" tabindex="-1" role="img" aria-label="7. x, 7, 5.8. Benford." style="outline: 0px;"></path><path fill="#7cb5ec" d="M 368 272 A 4 4 0 1 1 368.00399999933336 271.9999980000002 Z" opacity="1" class="highcharts-point highcharts-color-0" tabindex="-1" role="img" aria-label="8. x, 8, 5.1. Benford." style="outline: 0px;"></path><path fill="#7cb5ec" d="M 420 276 A 4 4 0 1 1 420.00399999933336 275.9999980000002 Z" opacity="1" class="highcharts-point highcharts-color-0" tabindex="-1" role="img" aria-label="9. x, 9, 4.6. Benford." style="outline: 0px;"></path></g><g class="highcharts-series highcharts-series-1 highcharts-line-series highcharts-color-1" data-z-index="0.1" opacity="1" transform="translate(68,53) scale(1 1)" clip-path="url(#highcharts-l3by2ga-293-)" aria-hidden="true"><path fill="none" d="M 4.1666666666667 53.724999999999994 L 56.25 214.9 L 108.33333333333 176.525 L 160.41666666667 245.6 L 212.5 222.575 L 264.58333333333 207.22500000000002 L 316.66666666667 276.3 L 368.75 291.65 L 420.83333333333 268.625" class="highcharts-graph" data-z-index="1" stroke="#434348" stroke-width="2" stroke-linejoin="round" stroke-linecap="round"></path></g><g class="highcharts-markers highcharts-series-1 highcharts-line-series highcharts-color-1" data-z-index="0.1" opacity="1" transform="translate(68,53) scale(1 1)" clip-path="none" aria-hidden="false" role="region" tabindex="-1" aria-label="Nepal, line 2 of 2 with 9 data points." style="outline: 0px;"><path fill="#434348" d="M 4 50 L 8 54 L 4 58 L 0 54 Z" opacity="1" class="highcharts-point highcharts-color-1" tabindex="-1" role="img" aria-label="1. x, 1, 33. Nepal." style="outline: 0px;"></path><path fill="#434348" d="M 56 211 L 60 215 L 56 219 L 52 215 Z" opacity="1" class="highcharts-point highcharts-color-1" tabindex="-1" role="img" aria-label="2. x, 2, 12. Nepal." style="outline: 0px;"></path><path fill="#434348" d="M 108 173 L 112 177 L 108 181 L 104 177 Z" opacity="1" class="highcharts-point highcharts-color-1" tabindex="-1" role="img" aria-label="3. x, 3, 17. Nepal." style="outline: 0px;"></path><path fill="#434348" d="M 160 242 L 164 246 L 160 250 L 156 246 Z" opacity="1" class="highcharts-point highcharts-color-1" tabindex="-1" role="img" aria-label="4. x, 4, 8. Nepal." style="outline: 0px;"></path><path fill="#434348" d="M 212 219 L 216 223 L 212 227 L 208 223 Z" opacity="1" class="highcharts-point highcharts-color-1" tabindex="-1" role="img" aria-label="5. x, 5, 11. Nepal." style="outline: 0px;"></path><path fill="#434348" d="M 264 203 L 268 207 L 264 211 L 260 207 Z" opacity="1" class="highcharts-point highcharts-color-1" tabindex="-1" role="img" aria-label="6. x, 6, 13. Nepal." style="outline: 0px;"></path><path fill="#434348" d="M 316 272 L 320 276 L 316 280 L 312 276 Z" opacity="1" class="highcharts-point highcharts-color-1" tabindex="-1" role="img" aria-label="7. x, 7, 4. Nepal." style="outline: 0px;"></path><path fill="#434348" d="M 368 288 L 372 292 L 368 296 L 364 292 Z" opacity="1" class="highcharts-point highcharts-color-1" tabindex="-1" role="img" aria-label="8. x, 8, 2. Nepal." style="outline: 0px;"></path><path fill="#434348" d="M 420 265 L 424 269 L 420 273 L 416 269 Z" opacity="1" class="highcharts-point highcharts-color-1" tabindex="-1" role="img" aria-label="9. x, 9, 5. Nepal." style="outline: 0px;"></path></g></g><g class="highcharts-label highcharts-series-label highcharts-series-label-0 highcharts-color-0" opacity="1" data-z-index="3" transform="translate(282,312)" aria-hidden="true"><path fill="none" class="highcharts-label-box" d="M 0 0" stroke="#7cb5ec" stroke-width="1"></path><text x="0" data-z-index="1" style="color:#7cb5ec;font-weight:bold;fill:#7cb5ec;" y="12">Benford</text></g><g class="highcharts-label highcharts-series-label highcharts-series-label-1 highcharts-color-1" opacity="1" data-z-index="3" transform="translate(450,300)" aria-hidden="true"><path fill="none" class="highcharts-label-box" d="M 0 0" stroke="#434348" stroke-width="1"></path><text x="0" data-z-index="1" style="color:#434348;font-weight:bold;fill:#434348;" y="12">Nepal</text></g><text x="300" text-anchor="middle" class="highcharts-title" data-z-index="4" style="color:#333333;font-size:18px;fill:#333333;" y="24" aria-hidden="true"><tspan>Benford Analysis</tspan></text><text x="300" text-anchor="middle" class="highcharts-subtitle" data-z-index="4" style="color:#666666;fill:#666666;" y="52" aria-hidden="true"></text><text x="10" text-anchor="start" class="highcharts-caption" data-z-index="4" style="color:#666666;fill:#666666;" y="397" aria-hidden="true"></text><g class="highcharts-legend" data-z-index="7" transform="translate(505,173)" aria-hidden="true"><rect fill="none" class="highcharts-legend-box" rx="0" ry="0" x="0" y="0" width="84" height="49" visibility="visible"></rect><g data-z-index="1"><g><g class="highcharts-legend-item highcharts-line-series highcharts-color-0 highcharts-series-0" data-z-index="1" transform="translate(8,3)"><path fill="none" d="M 0 11 L 16 11" class="highcharts-graph" stroke="#7cb5ec" stroke-width="2"></path><path fill="#7cb5ec" d="M 8 15 A 4 4 0 1 1 8.003999999333336 14.999998000000167 Z" class="highcharts-point" opacity="1"></path><text x="21" style="color:#333333;cursor:pointer;font-size:12px;font-weight:bold;fill:#333333;" text-anchor="start" data-z-index="2" y="15"><tspan>Benford</tspan></text></g><g class="highcharts-legend-item highcharts-line-series highcharts-color-1 highcharts-series-1" data-z-index="1" transform="translate(8,22)"><path fill="none" d="M 0 11 L 16 11" class="highcharts-graph" stroke="#434348" stroke-width="2"></path><path fill="#434348" d="M 8 7 L 12 11 L 8 15 L 4 11 Z" class="highcharts-point" opacity="1"></path><text x="21" y="15" style="color:#333333;cursor:pointer;font-size:12px;font-weight:bold;fill:#333333;" text-anchor="start" data-z-index="2"><tspan>Nepal</tspan></text></g></g></g></g><g class="highcharts-axis-labels highcharts-xaxis-labels" data-z-index="7" aria-hidden="true"><text x="124.25" style="color:#666666;cursor:default;font-size:11px;fill:#666666;" text-anchor="middle" transform="translate(0,0)" y="379" opacity="1">2</text><text x="228.41666666667" style="color:#666666;cursor:default;font-size:11px;fill:#666666;" text-anchor="middle" transform="translate(0,0)" y="379" opacity="1">4</text><text x="332.58333333333" style="color:#666666;cursor:default;font-size:11px;fill:#666666;" text-anchor="middle" transform="translate(0,0)" y="379" opacity="1">6</text><text x="436.75" style="color:#666666;cursor:default;font-size:11px;fill:#666666;" text-anchor="middle" transform="translate(0,0)" y="379" opacity="1">8</text></g><g class="highcharts-axis-labels highcharts-yaxis-labels" data-z-index="7" aria-hidden="true"><text x="53" style="color:#666666;cursor:default;font-size:11px;fill:#666666;" text-anchor="end" transform="translate(0,0)" y="362" opacity="1">0</text><text x="53" style="color:#666666;cursor:default;font-size:11px;fill:#666666;" text-anchor="end" transform="translate(0,0)" y="286" opacity="1">10</text><text x="53" style="color:#666666;cursor:default;font-size:11px;fill:#666666;" text-anchor="end" transform="translate(0,0)" y="209" opacity="1">20</text><text x="53" style="color:#666666;cursor:default;font-size:11px;fill:#666666;" text-anchor="end" transform="translate(0,0)" y="132" opacity="1">30</text><text x="53" style="color:#666666;cursor:default;font-size:11px;fill:#666666;" text-anchor="end" transform="translate(0,0)" y="55" opacity="1">40</text></g><text x="590" class="highcharts-credits" text-anchor="end" data-z-index="8" style="cursor:pointer;color:#999999;font-size:9px;fill:#999999;" y="395" aria-label="Chart credits: Highcharts.com" aria-hidden="false">Highcharts.com</text></svg>